<svg xmlns="http://www.w3.org/2000/svg" xmlns:xlink="http://www.w3.org/1999/xlink" width="100" height="100" viewBox="0 0 100 100" fill="none"><path     fill="#8A5CF5"  d="M18 -1.00421e-14L82 -1.00421e-14C91.9411 -1.00421e-14 100 8.05887 100 18L100 82C100 91.9411 91.9411 100 82 100L18 100C8.05887 100 -1.68893e-14 91.9411 -1.50632e-14 82L5.02105e-15 18C5.62977e-15 8.05887 8.05887 -1.12595e-14 18 -1.00421e-14Z"></path><g ><path     fill="#FFFFFF"  d="M44 40.16Q44 39.02 43.73 38.48Q43.46 37.94 42.56 36.92L42.62 36.5Q45.8 34.64 50.54 34.64Q52.4 34.64 53.3 34.94Q53.6 35.54 53.6 37.43Q53.6 39.32 50.72 50.96Q52.04 51.5 53.72 51.5Q56.6 51.5 58.46 49.52Q60.32 47.54 60.89 45.23Q61.46 42.92 61.46 40.34Q61.46 35.6 58.91 33.47Q56.36 31.34 50.66 31.34Q43.22 31.34 38.3 34.34Q33.38 37.34 33.38 40.64Q33.38 42.32 34.67 43.37Q35.96 44.42 37.34 44.78Q37.1 46.94 35.84 49.22Q33.56 48.92 31.49 46.82Q29.42 44.72 29.42 41.3Q29.42 35.18 36.26 31.46Q43.1 27.74 52.22 27.74Q61.34 27.74 66.02 30.77Q70.7 33.8 70.7 40.16Q70.7 48.5 64.04 52.76Q60.44 55.1 55.4 55.1Q52.22 55.1 49.94 54.14Q47.42 64.4 46.88 70.58Q43.34 71.6 39.02 71.6Q38 71.6 37.52 71.42Q37.82 67.64 40.91 55.7Q44 43.76 44 40.16Z"></path></g></svg>